#define einstein_small_width 75
#define einstein_small_height 75
static unsigned char einstein_small_bits[] = {
   0x00, 0x00, 0x00, 0x00, 0x00, 0x00, 0x00, 0x00, 0x00, 0x00, 0x00, 0x00,
   0x00, 0x00, 0x00, 0x22, 0x49, 0x42, 0x00, 0x00, 0x40, 0x92, 0x4a, 0xba,
   0x16, 0x08, 0x00, 0x08, 0x95, 0x00, 0x04, 0x00, 0x00, 0x78, 0xaa, 0x20,
   0x92, 0x00, 0x00, 0x01, 0x80, 0x10, 0x04, 0x6e, 0x4b, 0x80, 0x00, 0x2a,
   0x08, 0x00, 0x10, 0x42, 0x80, 0x57, 0xba, 0x08, 0x48, 0x40, 0x21, 0x01,
   0x00, 0x00, 0xc0, 0x50, 0x4f, 0x95, 0x00, 0x01, 0x04, 0x00, 0x42, 0x88,
   0xb0, 0x54, 0xbb, 0x3a, 0x2a, 0x94, 0x20, 0x01, 0x08, 0x21, 0x3f, 0x6a,
   0x01, 0x68, 0x80, 0x00, 0x02, 0x00, 0x00, 0x02, 0x1f, 0x0b, 0x00, 0xe0,
   0x12, 0x49, 0x48, 0x01, 0x10, 0x48, 0xc5, 0x05, 0x00, 0xc0, 0x00, 0x00,
   0x01, 0x00, 0x82, 0x00, 0x41, 0x00, 0x00, 0x80, 0x55, 0x2a, 0x2a, 0x01,
   0x10, 0x92, 0x55, 0x00, 0x00, 0x80, 0x01, 0x00, 0x00, 0x04, 0x20, 0xc0,
   0x25, 0x00, 0x00, 0x14, 0xab, 0xa4, 0xa4, 0x00, 0x82, 0xd2, 0x14, 0x00,
   0x94, 0xbf, 0x07, 0x11, 0x00, 0x00, 0x10, 0xc0, 0x19, 0x40, 0x21, 0x6a,
   0x2a, 0x82, 0x4a, 0x01, 0x84, 0x52, 0x14, 0xf0, 0xee, 0xdd, 0x8f, 0x28,
   0x00, 0x04, 0x00, 0x80, 0x0a, 0xac, 0x0a, 0x7f, 0x1d, 0x81, 0xaa, 0x00,
   0x00, 0x00, 0x05, 0xf4, 0xf5, 0xdd, 0x56, 0x14, 0x00, 0x02, 0x00, 0x50,
   0x1b, 0xad, 0x07, 0xfb, 0x0d, 0x41, 0x55, 0x00, 0x00, 0xa0, 0x0a, 0xea,
   0xd5, 0x7b, 0x55, 0x14, 0x80, 0x02, 0x00, 0xa8, 0x2a, 0xfa, 0x0f, 0xd3,
   0x19, 0x41, 0x15, 0x00, 0x00, 0xf0, 0x8b, 0xd6, 0x03, 0x23, 0x14, 0x14,
   0xa0, 0x02, 0x00, 0xf8, 0x36, 0xcc, 0x0f, 0xd6, 0x08, 0x00, 0x05, 0x00,
   0x00, 0xb0, 0x8b, 0x05, 0x05, 0x2c, 0x00, 0x00, 0x50, 0x05, 0x00, 0x30,
   0x14, 0x55, 0x05, 0x88, 0x14, 0x00, 0x00, 0x00, 0x00, 0xf0, 0x17, 0xa0,
   0x02, 0xb0, 0x16, 0x00, 0x00, 0x00, 0x00, 0xc0, 0x2b, 0x80, 0x04, 0xe5,
   0x15, 0x00, 0x00, 0x00, 0x00, 0xb0, 0x29, 0xa0, 0x02, 0xea, 0x17, 0x00,
   0x00, 0x00, 0x00, 0xd0, 0x0b, 0xa0, 0x43, 0xad, 0x16, 0x00, 0x00, 0x00,
   0x00, 0xd0, 0x29, 0x54, 0xbd, 0xae, 0x0b, 0x00, 0x00, 0x00, 0x00, 0xf0,
   0x93, 0xf4, 0xf1, 0x55, 0x1f, 0x04, 0x00, 0x00, 0x00, 0xa0, 0x0a, 0x55,
   0x54, 0xfd, 0x15, 0x04, 0x00, 0x00, 0x00, 0xe8, 0x2b, 0x5a, 0x55, 0xeb,
   0x15, 0x0c, 0x00, 0x00, 0x00, 0x90, 0x02, 0xaa, 0x7b, 0xff, 0x1b, 0x08,
   0x00, 0x00, 0x00, 0xb8, 0xa7, 0x58, 0xd7, 0x7a, 0x0b, 0x04, 0x00, 0x00,
   0x00, 0xa8, 0x06, 0xb5, 0x7f, 0xd7, 0x0a, 0x1c, 0x00, 0x00, 0x00, 0xb0,
   0x7f, 0x6a, 0xeb, 0xd6, 0x1a, 0x14, 0x00, 0x00, 0x00, 0xa8, 0xfe, 0xb4,
   0x95, 0x5a, 0x07, 0x2e, 0x00, 0x00, 0x00, 0x28, 0xd9, 0xd1, 0x6d, 0x57,
   0x04, 0x09, 0x00, 0x00, 0x00, 0xa0, 0xbb, 0xaa, 0xaa, 0x14, 0x80, 0x17,
   0x00, 0x00, 0x00, 0x40, 0xf6, 0x87, 0xaa, 0x0a, 0xc0, 0x07, 0x00, 0x00,
   0x00, 0x80, 0x55, 0x01, 0xa0, 0x0a, 0xc0, 0x07, 0x00, 0x00, 0x00, 0x00,
   0x01, 0x00, 0xc0, 0xee, 0xef, 0x03, 0x00, 0x00, 0x00, 0x00, 0x00, 0x00,
   0xe0, 0xff, 0xff, 0x03, 0x00, 0x00, 0x00, 0x00, 0x00, 0x00, 0xfe, 0xff,
   0xff, 0x01, 0x00, 0x00, 0x00, 0x00, 0x00, 0x80, 0xff, 0xff, 0xff, 0x00,
   0x00, 0x00, 0x00, 0x00, 0x00, 0xc0, 0xff, 0xff, 0x3f, 0x00, 0x00, 0x00,
   0x00, 0x00, 0x00, 0xc0, 0xff, 0xff, 0x03, 0x00, 0x00, 0x00, 0x00, 0x00,
   0x00, 0xe0, 0xff, 0xff, 0x01, 0x00, 0x00, 0x00, 0x00, 0x00, 0x00, 0xe0,
   0xff, 0xff, 0x03, 0x00, 0x00, 0x00, 0x00, 0x00, 0x00, 0xe0, 0xff, 0xff,
   0x03, 0x00, 0x00, 0x00, 0x00, 0x00, 0x00, 0xc0, 0xff, 0xff, 0x03, 0x00,
   0x00, 0x00, 0x00, 0x00, 0x00, 0xe0, 0xff, 0xff, 0x03, 0x00, 0x00, 0x00,
   0x00, 0x00, 0x00, 0xc0, 0xff, 0xff, 0x07, 0x00, 0x00, 0x00, 0x00, 0x00,
   0x00, 0xc0, 0xff, 0xff, 0x03, 0x00, 0x00, 0x00, 0x00, 0x00, 0x00, 0x80,
   0xff, 0xff, 0x07, 0x00, 0x00, 0x00, 0x00, 0x00, 0x00, 0x00, 0xfc, 0xff,
   0x03, 0x00, 0x00, 0x00, 0x00, 0x00, 0x00, 0x80, 0xfd, 0xff, 0x07, 0x00,
   0x00, 0x00, 0x00, 0x00, 0x00, 0x00, 0xf8, 0xff, 0x01, 0x00, 0x00, 0x00,
   0x00, 0x00, 0x00, 0x00, 0xf0, 0xff, 0x01, 0x00, 0x00, 0x00, 0x00, 0x00,
   0x00, 0x00, 0xf8, 0xff, 0x01, 0x00, 0x00, 0x00, 0x00, 0x00, 0x00, 0x00,
   0xf8, 0xff, 0x01, 0x00, 0x00, 0x00, 0x00, 0x00, 0x00, 0x00, 0xfc, 0xfd,
   0x01, 0x00, 0x00, 0x00, 0x00, 0x00, 0x00, 0x00, 0xfc, 0xfd, 0x01, 0x00,
   0x00, 0x00, 0x00, 0x00, 0x00, 0x00, 0xfe, 0xfc, 0x00, 0x00, 0x00, 0x00,
   0x00, 0x00, 0x00, 0x00, 0xff, 0xf9, 0x01, 0x00, 0x00, 0x00, 0x00, 0x00,
   0x00, 0x80, 0xff, 0xfc, 0x00, 0x00, 0x00, 0x00, 0x00, 0x00, 0x00, 0xc0,
   0xff, 0xfd, 0x03, 0x00, 0x00, 0x00, 0x00, 0x00, 0x00, 0xc0, 0xff, 0xff,
   0x01, 0x00, 0x00, 0x00, 0x00, 0x00, 0x00, 0xc0, 0xff, 0xfe, 0x03, 0x00,
   0x00, 0x00, 0x00, 0x00, 0x00, 0xc0, 0xff, 0xff, 0x01, 0x00, 0x00, 0x00,
   0x00, 0x00, 0x00, 0x80, 0x1f, 0xfe, 0x05, 0x00, 0x00, 0x00, 0x00, 0x00,
   0x00, 0x10, 0x68, 0xd1, 0x01, 0x00, 0x00, 0x00, 0x00, 0x00, 0x00, 0x40,
   0xa5, 0x56, 0x00, 0x00, 0x00, 0x00 };
